<svg width="142" height="135" viewBox="0 0 142 135" fill="none" xmlns="http://www.w3.org/2000/svg">
<path d="M71 1C32.339 1 1 30.7721 1 67.5C1 104.228 32.339 134 71 134C109.661 134 141 104.228 141 67.5C141 30.7721 109.661 1 71 1Z" stroke="#228137" stroke-width="1.5" stroke-linecap="round" stroke-linejoin="round"/>
<path d="M16.897 109.701C16.897 109.701 32.5 90.7746 71 90.7746C109.5 90.7746 125.11 109.701 125.11 109.701M71 67.4996C76.5695 67.4996 81.911 65.3977 85.8492 61.6564C89.7875 57.915 92 52.8407 92 47.5496C92 42.2585 89.7875 37.1842 85.8492 33.4428C81.911 29.7015 76.5695 27.5996 71 27.5996C65.4304 27.5996 60.089 29.7015 56.1507 33.4428C52.2125 37.1842 50 42.2585 50 47.5496C50 52.8407 52.2125 57.915 56.1507 61.6564C60.089 65.3977 65.4304 67.4996 71 67.4996Z" stroke="#228137" stroke-width="1.5" stroke-linecap="round" stroke-linejoin="round"/>
</svg>
