<svg width="841" height="761" viewBox="0 0 841 761" fill="none" xmlns="http://www.w3.org/2000/svg">
<path d="M29 8.00001C29 3.58173 32.5817 0 37 0H839.465C840.188 0 840.672 0.743137 840.379 1.40421L511 746.738H37C32.5817 746.738 29 743.156 29 738.738V8.00001Z" fill="#B7821C"/>
<path d="M0 7.99999C0 3.58171 3.58172 0 8 0H810.519C811.227 0 811.711 0.716694 811.446 1.37392L505.191 761H8C3.58172 761 0 757.418 0 753V7.99999Z" fill="#33603D"/>
<g filter="url(#filter0_d_1702_2074)">
<path d="M183.16 373.961V306.761H208.312C214.008 306.761 218.904 307.689 223 309.545C227.096 311.337 230.232 313.961 232.408 317.417C234.648 320.809 235.768 324.937 235.768 329.801C235.768 334.537 234.648 338.633 232.408 342.089C230.232 345.481 227.096 348.105 223 349.961C218.904 351.753 214.008 352.649 208.312 352.649H187.096L190.264 349.385V373.961H183.16ZM229.048 373.961L211.768 349.577H219.448L236.824 373.961H229.048ZM190.264 349.961L187.096 346.601H208.12C214.84 346.601 219.928 345.129 223.384 342.185C226.904 339.241 228.664 335.113 228.664 329.801C228.664 324.425 226.904 320.265 223.384 317.321C219.928 314.377 214.84 312.905 208.12 312.905H187.096L190.264 309.545V349.961Z" fill="white"/>
</g>
<g filter="url(#filter1_d_1702_2074)">
<path d="M328.949 373.576C323.893 373.576 319.221 372.744 314.933 371.08C310.645 369.352 306.933 366.952 303.797 363.88C300.661 360.808 298.197 357.192 296.405 353.032C294.677 348.872 293.813 344.328 293.813 339.4C293.813 334.472 294.677 329.928 296.405 325.768C298.197 321.608 300.661 317.992 303.797 314.92C306.997 311.848 310.741 309.48 315.029 307.816C319.317 306.088 323.989 305.224 329.045 305.224C333.909 305.224 338.485 306.056 342.773 307.72C347.061 309.32 350.677 311.752 353.621 315.016L349.109 319.528C346.357 316.712 343.317 314.696 339.989 313.48C336.661 312.2 333.077 311.56 329.237 311.56C325.205 311.56 321.461 312.264 318.005 313.672C314.549 315.016 311.541 316.968 308.981 319.528C306.421 322.024 304.405 324.968 302.933 328.36C301.525 331.688 300.821 335.368 300.821 339.4C300.821 343.432 301.525 347.144 302.933 350.536C304.405 353.864 306.421 356.808 308.981 359.368C311.541 361.864 314.549 363.816 318.005 365.224C321.461 366.568 325.205 367.24 329.237 367.24C333.077 367.24 336.661 366.6 339.989 365.32C343.317 364.04 346.357 361.992 349.109 359.176L353.621 363.688C350.677 366.952 347.061 369.416 342.773 371.08C338.485 372.744 333.877 373.576 328.949 373.576Z" fill="white"/>
</g>
<g filter="url(#filter2_d_1702_2074)">
<path d="M435.83 373.576C430.838 373.576 426.038 372.776 421.43 371.176C416.886 369.512 413.366 367.4 410.87 364.84L413.654 359.368C416.022 361.672 419.19 363.624 423.158 365.224C427.19 366.76 431.414 367.528 435.83 367.528C440.054 367.528 443.478 367.016 446.102 365.992C448.79 364.904 450.742 363.464 451.958 361.672C453.238 359.88 453.878 357.896 453.878 355.72C453.878 353.096 453.11 350.984 451.574 349.384C450.102 347.784 448.15 346.536 445.718 345.64C443.286 344.68 440.598 343.848 437.654 343.144C434.71 342.44 431.766 341.704 428.822 340.936C425.878 340.104 423.158 339.016 420.662 337.672C418.23 336.328 416.246 334.568 414.71 332.392C413.238 330.152 412.502 327.24 412.502 323.656C412.502 320.328 413.366 317.288 415.094 314.536C416.886 311.72 419.606 309.48 423.254 307.816C426.902 306.088 431.574 305.224 437.27 305.224C441.046 305.224 444.79 305.768 448.502 306.856C452.214 307.88 455.414 309.32 458.102 311.176L455.702 316.84C452.822 314.92 449.75 313.512 446.486 312.616C443.286 311.72 440.182 311.272 437.174 311.272C433.142 311.272 429.814 311.816 427.19 312.904C424.566 313.992 422.614 315.464 421.334 317.32C420.118 319.112 419.51 321.16 419.51 323.464C419.51 326.088 420.246 328.2 421.718 329.8C423.254 331.4 425.238 332.648 427.67 333.544C430.166 334.44 432.886 335.24 435.83 335.944C438.774 336.648 441.686 337.416 444.566 338.248C447.51 339.08 450.198 340.168 452.63 341.512C455.126 342.792 457.11 344.52 458.582 346.696C460.118 348.872 460.886 351.72 460.886 355.24C460.886 358.504 459.99 361.544 458.198 364.36C456.406 367.112 453.654 369.352 449.942 371.08C446.294 372.744 441.59 373.576 435.83 373.576Z" fill="white"/>
</g>
<g filter="url(#filter3_d_1702_2074)">
<path d="M136.56 449V421H147.04C149.413 421 151.453 421.387 153.16 422.16C154.867 422.907 156.173 424 157.08 425.44C158.013 426.853 158.48 428.573 158.48 430.6C158.48 432.573 158.013 434.28 157.08 435.72C156.173 437.133 154.867 438.227 153.16 439C151.453 439.747 149.413 440.12 147.04 440.12H138.2L139.52 438.76V449H136.56ZM155.68 449L148.48 438.84H151.68L158.92 449H155.68ZM139.52 439L138.2 437.6H146.96C149.76 437.6 151.88 436.987 153.32 435.76C154.787 434.533 155.52 432.813 155.52 430.6C155.52 428.36 154.787 426.627 153.32 425.4C151.88 424.173 149.76 423.56 146.96 423.56H138.2L139.52 422.16V439ZM193.786 449.2C191.6 449.2 189.68 448.747 188.026 447.84C186.373 446.907 185.08 445.64 184.146 444.04C183.213 442.413 182.746 440.56 182.746 438.48C182.746 436.4 183.186 434.56 184.066 432.96C184.973 431.36 186.2 430.107 187.746 429.2C189.32 428.267 191.08 427.8 193.026 427.8C195 427.8 196.746 428.253 198.266 429.16C199.813 430.04 201.026 431.293 201.906 432.92C202.786 434.52 203.226 436.373 203.226 438.48C203.226 438.613 203.213 438.76 203.186 438.92C203.186 439.053 203.186 439.2 203.186 439.36H184.906V437.24H201.666L200.546 438.08C200.546 436.56 200.213 435.213 199.546 434.04C198.906 432.84 198.026 431.907 196.906 431.24C195.786 430.573 194.493 430.24 193.026 430.24C191.586 430.24 190.293 430.573 189.146 431.24C188 431.907 187.106 432.84 186.466 434.04C185.826 435.24 185.506 436.613 185.506 438.16V438.6C185.506 440.2 185.853 441.613 186.546 442.84C187.266 444.04 188.253 444.987 189.506 445.68C190.786 446.347 192.24 446.68 193.866 446.68C195.146 446.68 196.333 446.453 197.426 446C198.546 445.547 199.506 444.853 200.306 443.92L201.906 445.76C200.973 446.88 199.8 447.733 198.386 448.32C197 448.907 195.466 449.2 193.786 449.2ZM241.767 449.24C239.66 449.24 237.714 448.893 235.927 448.2C234.14 447.48 232.594 446.48 231.287 445.2C229.98 443.92 228.954 442.413 228.207 440.68C227.487 438.947 227.127 437.053 227.127 435C227.127 432.947 227.487 431.053 228.207 429.32C228.954 427.587 229.98 426.08 231.287 424.8C232.62 423.52 234.18 422.533 235.967 421.84C237.754 421.12 239.7 420.76 241.807 420.76C243.834 420.76 245.74 421.107 247.527 421.8C249.314 422.467 250.82 423.48 252.047 424.84L250.167 426.72C249.02 425.547 247.754 424.707 246.367 424.2C244.98 423.667 243.487 423.4 241.887 423.4C240.207 423.4 238.647 423.693 237.207 424.28C235.767 424.84 234.514 425.653 233.447 426.72C232.38 427.76 231.54 428.987 230.927 430.4C230.34 431.787 230.047 433.32 230.047 435C230.047 436.68 230.34 438.227 230.927 439.64C231.54 441.027 232.38 442.253 233.447 443.32C234.514 444.36 235.767 445.173 237.207 445.76C238.647 446.32 240.207 446.6 241.887 446.6C243.487 446.6 244.98 446.333 246.367 445.8C247.754 445.267 249.02 444.413 250.167 443.24L252.047 445.12C250.82 446.48 249.314 447.507 247.527 448.2C245.74 448.893 243.82 449.24 241.767 449.24ZM285.379 449.2C283.353 449.2 281.526 448.747 279.899 447.84C278.299 446.907 277.033 445.64 276.099 444.04C275.166 442.413 274.699 440.56 274.699 438.48C274.699 436.373 275.166 434.52 276.099 432.92C277.033 431.32 278.299 430.067 279.899 429.16C281.499 428.253 283.326 427.8 285.379 427.8C287.459 427.8 289.299 428.253 290.899 429.16C292.526 430.067 293.793 431.32 294.699 432.92C295.633 434.52 296.099 436.373 296.099 438.48C296.099 440.56 295.633 442.413 294.699 444.04C293.793 445.64 292.526 446.907 290.899 447.84C289.273 448.747 287.433 449.2 285.379 449.2ZM285.379 446.68C286.899 446.68 288.246 446.347 289.419 445.68C290.593 444.987 291.513 444.027 292.179 442.8C292.873 441.547 293.219 440.107 293.219 438.48C293.219 436.827 292.873 435.387 292.179 434.16C291.513 432.933 290.593 431.987 289.419 431.32C288.246 430.627 286.913 430.28 285.419 430.28C283.926 430.28 282.593 430.627 281.419 431.32C280.246 431.987 279.313 432.933 278.619 434.16C277.926 435.387 277.579 436.827 277.579 438.48C277.579 440.107 277.926 441.547 278.619 442.8C279.313 444.027 280.246 444.987 281.419 445.68C282.593 446.347 283.913 446.68 285.379 446.68ZM332.618 427.8C334.324 427.8 335.818 428.133 337.098 428.8C338.404 429.44 339.418 430.427 340.138 431.76C340.884 433.093 341.258 434.773 341.258 436.8V449H338.418V437.08C338.418 434.867 337.858 433.2 336.738 432.08C335.644 430.933 334.098 430.36 332.098 430.36C330.604 430.36 329.298 430.667 328.178 431.28C327.084 431.867 326.231 432.733 325.618 433.88C325.031 435 324.738 436.36 324.738 437.96V449H321.898V428H324.618V433.76L324.178 432.68C324.844 431.16 325.911 429.973 327.378 429.12C328.844 428.24 330.591 427.8 332.618 427.8ZM377.249 449.24C375.169 449.24 373.169 448.907 371.249 448.24C369.355 447.547 367.889 446.667 366.849 445.6L368.009 443.32C368.995 444.28 370.315 445.093 371.969 445.76C373.649 446.4 375.409 446.72 377.249 446.72C379.009 446.72 380.435 446.507 381.529 446.08C382.649 445.627 383.462 445.027 383.969 444.28C384.502 443.533 384.769 442.707 384.769 441.8C384.769 440.707 384.449 439.827 383.809 439.16C383.195 438.493 382.382 437.973 381.369 437.6C380.355 437.2 379.235 436.853 378.009 436.56C376.782 436.267 375.555 435.96 374.329 435.64C373.102 435.293 371.969 434.84 370.929 434.28C369.915 433.72 369.089 432.987 368.449 432.08C367.835 431.147 367.529 429.933 367.529 428.44C367.529 427.053 367.889 425.787 368.609 424.64C369.355 423.467 370.489 422.533 372.009 421.84C373.529 421.12 375.475 420.76 377.849 420.76C379.422 420.76 380.982 420.987 382.529 421.44C384.075 421.867 385.409 422.467 386.529 423.24L385.529 425.6C384.329 424.8 383.049 424.213 381.689 423.84C380.355 423.467 379.062 423.28 377.809 423.28C376.129 423.28 374.742 423.507 373.649 423.96C372.555 424.413 371.742 425.027 371.209 425.8C370.702 426.547 370.449 427.4 370.449 428.36C370.449 429.453 370.755 430.333 371.369 431C372.009 431.667 372.835 432.187 373.849 432.56C374.889 432.933 376.022 433.267 377.249 433.56C378.475 433.853 379.689 434.173 380.889 434.52C382.115 434.867 383.235 435.32 384.249 435.88C385.289 436.413 386.115 437.133 386.729 438.04C387.369 438.947 387.689 440.133 387.689 441.6C387.689 442.96 387.315 444.227 386.569 445.4C385.822 446.547 384.675 447.48 383.129 448.2C381.609 448.893 379.649 449.24 377.249 449.24ZM420.178 449.2C418.205 449.2 416.685 448.667 415.618 447.6C414.551 446.533 414.018 445.027 414.018 443.08V423.36H416.858V442.92C416.858 444.147 417.165 445.093 417.778 445.76C418.418 446.427 419.325 446.76 420.498 446.76C421.751 446.76 422.791 446.4 423.618 445.68L424.618 447.72C424.058 448.227 423.378 448.6 422.578 448.84C421.805 449.08 421.005 449.2 420.178 449.2ZM410.258 430.36V428H423.258V430.36H410.258ZM449.788 449V428H452.508V433.72L452.228 432.72C452.815 431.12 453.801 429.907 455.188 429.08C456.575 428.227 458.295 427.8 460.348 427.8V430.56C460.241 430.56 460.135 430.56 460.028 430.56C459.921 430.533 459.815 430.52 459.708 430.52C457.495 430.52 455.761 431.2 454.508 432.56C453.255 433.893 452.628 435.8 452.628 438.28V449H449.788ZM494.523 449.2C492.736 449.2 491.176 448.867 489.843 448.2C488.509 447.533 487.469 446.533 486.723 445.2C486.003 443.867 485.643 442.2 485.643 440.2V428H488.483V439.88C488.483 442.12 489.029 443.813 490.123 444.96C491.243 446.08 492.803 446.64 494.803 446.64C496.269 446.64 497.536 446.347 498.603 445.76C499.696 445.147 500.523 444.267 501.083 443.12C501.669 441.973 501.963 440.6 501.963 439V428H504.803V449H502.083V443.24L502.523 444.28C501.856 445.827 500.816 447.04 499.403 447.92C498.016 448.773 496.389 449.2 494.523 449.2ZM532.718 449V428H535.558V449H532.718ZM534.158 423.36C533.571 423.36 533.078 423.16 532.678 422.76C532.278 422.36 532.078 421.88 532.078 421.32C532.078 420.76 532.278 420.293 532.678 419.92C533.078 419.52 533.571 419.32 534.158 419.32C534.744 419.32 535.238 419.507 535.638 419.88C536.038 420.253 536.238 420.72 536.238 421.28C536.238 421.867 536.038 422.36 535.638 422.76C535.264 423.16 534.771 423.36 534.158 423.36Z" fill="white"/>
</g>
<rect x="109" y="397.5" width="450" height="1.92308" fill="white"/>
<defs>
<filter id="filter0_d_1702_2074" x="181.16" y="306.761" width="57.6641" height="73.2" filterUnits="userSpaceOnUse" color-interpolation-filters="sRGB">
<feFlood flood-opacity="0" result="BackgroundImageFix"/>
<feColorMatrix in="SourceAlpha" type="matrix" values="0 0 0 0 0 0 0 0 0 0 0 0 0 0 0 0 0 0 127 0" result="hardAlpha"/>
<feOffset dy="4"/>
<feGaussianBlur stdDeviation="1"/>
<feComposite in2="hardAlpha" operator="out"/>
<feColorMatrix type="matrix" values="0 0 0 0 0 0 0 0 0 0 0 0 0 0 0 0 0 0 0.25 0"/>
<feBlend mode="normal" in2="BackgroundImageFix" result="effect1_dropShadow_1702_2074"/>
<feBlend mode="normal" in="SourceGraphic" in2="effect1_dropShadow_1702_2074" result="shape"/>
</filter>
<filter id="filter1_d_1702_2074" x="291.813" y="305.224" width="63.8076" height="74.3518" filterUnits="userSpaceOnUse" color-interpolation-filters="sRGB">
<feFlood flood-opacity="0" result="BackgroundImageFix"/>
<feColorMatrix in="SourceAlpha" type="matrix" values="0 0 0 0 0 0 0 0 0 0 0 0 0 0 0 0 0 0 127 0" result="hardAlpha"/>
<feOffset dy="4"/>
<feGaussianBlur stdDeviation="1"/>
<feComposite in2="hardAlpha" operator="out"/>
<feColorMatrix type="matrix" values="0 0 0 0 0 0 0 0 0 0 0 0 0 0 0 0 0 0 0.25 0"/>
<feBlend mode="normal" in2="BackgroundImageFix" result="effect1_dropShadow_1702_2074"/>
<feBlend mode="normal" in="SourceGraphic" in2="effect1_dropShadow_1702_2074" result="shape"/>
</filter>
<filter id="filter2_d_1702_2074" x="408.871" y="305.224" width="54.0156" height="74.3518" filterUnits="userSpaceOnUse" color-interpolation-filters="sRGB">
<feFlood flood-opacity="0" result="BackgroundImageFix"/>
<feColorMatrix in="SourceAlpha" type="matrix" values="0 0 0 0 0 0 0 0 0 0 0 0 0 0 0 0 0 0 127 0" result="hardAlpha"/>
<feOffset dy="4"/>
<feGaussianBlur stdDeviation="1"/>
<feComposite in2="hardAlpha" operator="out"/>
<feColorMatrix type="matrix" values="0 0 0 0 0 0 0 0 0 0 0 0 0 0 0 0 0 0 0.25 0"/>
<feBlend mode="normal" in2="BackgroundImageFix" result="effect1_dropShadow_1702_2074"/>
<feBlend mode="normal" in="SourceGraphic" in2="effect1_dropShadow_1702_2074" result="shape"/>
</filter>
<filter id="filter3_d_1702_2074" x="132.56" y="419.32" width="407.678" height="37.9199" filterUnits="userSpaceOnUse" color-interpolation-filters="sRGB">
<feFlood flood-opacity="0" result="BackgroundImageFix"/>
<feColorMatrix in="SourceAlpha" type="matrix" values="0 0 0 0 0 0 0 0 0 0 0 0 0 0 0 0 0 0 127 0" result="hardAlpha"/>
<feOffset dy="4"/>
<feGaussianBlur stdDeviation="2"/>
<feComposite in2="hardAlpha" operator="out"/>
<feColorMatrix type="matrix" values="0 0 0 0 0 0 0 0 0 0 0 0 0 0 0 0 0 0 0.25 0"/>
<feBlend mode="normal" in2="BackgroundImageFix" result="effect1_dropShadow_1702_2074"/>
<feBlend mode="normal" in="SourceGraphic" in2="effect1_dropShadow_1702_2074" result="shape"/>
</filter>
</defs>
</svg>
