<svg width="122" height="122" viewBox="0 0 122 122" fill="none" xmlns="http://www.w3.org/2000/svg">
<path d="M61 1C27.862 1 1 27.862 1 61C1 94.138 27.862 121 61 121C94.138 121 121 94.138 121 61C121 27.862 94.138 1 61 1Z" stroke="#F8F8F8" stroke-width="1.5" stroke-linecap="round" stroke-linejoin="round"/>
<path d="M14.626 99.076C14.626 99.076 28 82 61 82C94 82 107.38 99.076 107.38 99.076M61 61C65.7739 61 70.3522 59.1036 73.7279 55.7279C77.1036 52.3523 79 47.7739 79 43C79 38.2261 77.1036 33.6477 73.7279 30.2721C70.3522 26.8964 65.7739 25 61 25C56.2261 25 51.6477 26.8964 48.2721 30.2721C44.8964 33.6477 43 38.2261 43 43C43 47.7739 44.8964 52.3523 48.2721 55.7279C51.6477 59.1036 56.2261 61 61 61Z" stroke="#F8F8F8" stroke-width="1.5" stroke-linecap="round" stroke-linejoin="round"/>
</svg>
