<svg width="450" height="186" viewBox="0 0 450 186" fill="none" xmlns="http://www.w3.org/2000/svg">
<g filter="url(#filter0_d_1115_429)">
<path d="M74.1608 93.9614V26.7614H99.3128C105.009 26.7614 109.905 27.6894 114.001 29.5454C118.097 31.3374 121.233 33.9614 123.409 37.4174C125.649 40.8094 126.769 44.9374 126.769 49.8014C126.769 54.5374 125.649 58.6334 123.409 62.0894C121.233 65.4814 118.097 68.1054 114.001 69.9614C109.905 71.7534 105.009 72.6494 99.3128 72.6494H78.0968L81.2648 69.3854V93.9614H74.1608ZM120.049 93.9614L102.769 69.5774H110.449L127.825 93.9614H120.049ZM81.2648 69.9614L78.0968 66.6014H99.1208C105.841 66.6014 110.929 65.1294 114.385 62.1854C117.905 59.2414 119.665 55.1134 119.665 49.8014C119.665 44.4254 117.905 40.2654 114.385 37.3214C110.929 34.3774 105.841 32.9054 99.1208 32.9054H78.0968L81.2648 29.5454V69.9614Z" fill="white"/>
</g>
<g filter="url(#filter1_d_1115_429)">
<path d="M219.949 93.576C214.893 93.576 210.221 92.744 205.933 91.08C201.645 89.352 197.933 86.952 194.797 83.88C191.661 80.808 189.197 77.192 187.405 73.032C185.677 68.872 184.813 64.328 184.813 59.4C184.813 54.472 185.677 49.928 187.405 45.768C189.197 41.608 191.661 37.992 194.797 34.92C197.997 31.848 201.741 29.48 206.029 27.816C210.317 26.088 214.989 25.224 220.045 25.224C224.909 25.224 229.485 26.056 233.773 27.72C238.061 29.32 241.677 31.752 244.621 35.016L240.109 39.528C237.357 36.712 234.317 34.696 230.989 33.48C227.661 32.2 224.077 31.56 220.237 31.56C216.205 31.56 212.461 32.264 209.005 33.672C205.549 35.016 202.541 36.968 199.981 39.528C197.421 42.024 195.405 44.968 193.933 48.36C192.525 51.688 191.821 55.368 191.821 59.4C191.821 63.432 192.525 67.144 193.933 70.536C195.405 73.864 197.421 76.808 199.981 79.368C202.541 81.864 205.549 83.816 209.005 85.224C212.461 86.568 216.205 87.24 220.237 87.24C224.077 87.24 227.661 86.6 230.989 85.32C234.317 84.04 237.357 81.992 240.109 79.176L244.621 83.688C241.677 86.952 238.061 89.416 233.773 91.08C229.485 92.744 224.877 93.576 219.949 93.576Z" fill="white"/>
</g>
<g filter="url(#filter2_d_1115_429)">
<path d="M326.831 93.576C321.839 93.576 317.039 92.776 312.431 91.176C307.887 89.512 304.367 87.4 301.871 84.84L304.655 79.368C307.023 81.672 310.191 83.624 314.159 85.224C318.191 86.76 322.415 87.528 326.831 87.528C331.055 87.528 334.479 87.016 337.103 85.992C339.791 84.904 341.743 83.464 342.959 81.672C344.239 79.88 344.879 77.896 344.879 75.72C344.879 73.096 344.111 70.984 342.575 69.384C341.103 67.784 339.151 66.536 336.719 65.64C334.287 64.68 331.599 63.848 328.655 63.144C325.711 62.44 322.767 61.704 319.823 60.936C316.879 60.104 314.159 59.016 311.663 57.672C309.231 56.328 307.247 54.568 305.711 52.392C304.239 50.152 303.503 47.24 303.503 43.656C303.503 40.328 304.367 37.288 306.095 34.536C307.887 31.72 310.607 29.48 314.255 27.816C317.903 26.088 322.575 25.224 328.271 25.224C332.047 25.224 335.791 25.768 339.503 26.856C343.215 27.88 346.415 29.32 349.103 31.176L346.703 36.84C343.823 34.92 340.751 33.512 337.487 32.616C334.287 31.72 331.183 31.272 328.175 31.272C324.143 31.272 320.815 31.816 318.191 32.904C315.567 33.992 313.615 35.464 312.335 37.32C311.119 39.112 310.511 41.16 310.511 43.464C310.511 46.088 311.247 48.2 312.719 49.8C314.255 51.4 316.239 52.648 318.671 53.544C321.167 54.44 323.887 55.24 326.831 55.944C329.775 56.648 332.687 57.416 335.567 58.248C338.511 59.08 341.199 60.168 343.631 61.512C346.127 62.792 348.111 64.52 349.583 66.696C351.119 68.872 351.887 71.72 351.887 75.24C351.887 78.504 350.991 81.544 349.199 84.36C347.407 87.112 344.655 89.352 340.943 91.08C337.295 92.744 332.591 93.576 326.831 93.576Z" fill="white"/>
</g>
<g filter="url(#filter3_d_1115_429)">
<path d="M27.56 169V141H38.04C40.4133 141 42.4533 141.387 44.16 142.16C45.8667 142.907 47.1733 144 48.08 145.44C49.0133 146.853 49.48 148.573 49.48 150.6C49.48 152.573 49.0133 154.28 48.08 155.72C47.1733 157.133 45.8667 158.227 44.16 159C42.4533 159.747 40.4133 160.12 38.04 160.12H29.2L30.52 158.76V169H27.56ZM46.68 169L39.48 158.84H42.68L49.92 169H46.68ZM30.52 159L29.2 157.6H37.96C40.76 157.6 42.88 156.987 44.32 155.76C45.7867 154.533 46.52 152.813 46.52 150.6C46.52 148.36 45.7867 146.627 44.32 145.4C42.88 144.173 40.76 143.56 37.96 143.56H29.2L30.52 142.16V159ZM84.7863 169.2C82.5996 169.2 80.6796 168.747 79.0263 167.84C77.3729 166.907 76.0796 165.64 75.1463 164.04C74.2129 162.413 73.7463 160.56 73.7463 158.48C73.7463 156.4 74.1863 154.56 75.0663 152.96C75.9729 151.36 77.1996 150.107 78.7463 149.2C80.3196 148.267 82.0796 147.8 84.0263 147.8C85.9996 147.8 87.7463 148.253 89.2663 149.16C90.8129 150.04 92.0263 151.293 92.9063 152.92C93.7863 154.52 94.2263 156.373 94.2263 158.48C94.2263 158.613 94.2129 158.76 94.1863 158.92C94.1863 159.053 94.1863 159.2 94.1863 159.36H75.9063V157.24H92.6663L91.5463 158.08C91.5463 156.56 91.2129 155.213 90.5463 154.04C89.9063 152.84 89.0263 151.907 87.9063 151.24C86.7863 150.573 85.4929 150.24 84.0263 150.24C82.5863 150.24 81.2929 150.573 80.1463 151.24C78.9996 151.907 78.1063 152.84 77.4663 154.04C76.8263 155.24 76.5063 156.613 76.5063 158.16V158.6C76.5063 160.2 76.8529 161.613 77.5463 162.84C78.2663 164.04 79.2529 164.987 80.5063 165.68C81.7863 166.347 83.2396 166.68 84.8663 166.68C86.1463 166.68 87.3329 166.453 88.4263 166C89.5463 165.547 90.5063 164.853 91.3063 163.92L92.9063 165.76C91.9729 166.88 90.7996 167.733 89.3863 168.32C87.9996 168.907 86.4663 169.2 84.7863 169.2ZM132.767 169.24C130.66 169.24 128.714 168.893 126.927 168.2C125.14 167.48 123.594 166.48 122.287 165.2C120.98 163.92 119.954 162.413 119.207 160.68C118.487 158.947 118.127 157.053 118.127 155C118.127 152.947 118.487 151.053 119.207 149.32C119.954 147.587 120.98 146.08 122.287 144.8C123.62 143.52 125.18 142.533 126.967 141.84C128.754 141.12 130.7 140.76 132.807 140.76C134.834 140.76 136.74 141.107 138.527 141.8C140.314 142.467 141.82 143.48 143.047 144.84L141.167 146.72C140.02 145.547 138.754 144.707 137.367 144.2C135.98 143.667 134.487 143.4 132.887 143.4C131.207 143.4 129.647 143.693 128.207 144.28C126.767 144.84 125.514 145.653 124.447 146.72C123.38 147.76 122.54 148.987 121.927 150.4C121.34 151.787 121.047 153.32 121.047 155C121.047 156.68 121.34 158.227 121.927 159.64C122.54 161.027 123.38 162.253 124.447 163.32C125.514 164.36 126.767 165.173 128.207 165.76C129.647 166.32 131.207 166.6 132.887 166.6C134.487 166.6 135.98 166.333 137.367 165.8C138.754 165.267 140.02 164.413 141.167 163.24L143.047 165.12C141.82 166.48 140.314 167.507 138.527 168.2C136.74 168.893 134.82 169.24 132.767 169.24ZM176.379 169.2C174.353 169.2 172.526 168.747 170.899 167.84C169.299 166.907 168.033 165.64 167.099 164.04C166.166 162.413 165.699 160.56 165.699 158.48C165.699 156.373 166.166 154.52 167.099 152.92C168.033 151.32 169.299 150.067 170.899 149.16C172.499 148.253 174.326 147.8 176.379 147.8C178.459 147.8 180.299 148.253 181.899 149.16C183.526 150.067 184.793 151.32 185.699 152.92C186.633 154.52 187.099 156.373 187.099 158.48C187.099 160.56 186.633 162.413 185.699 164.04C184.793 165.64 183.526 166.907 181.899 167.84C180.273 168.747 178.433 169.2 176.379 169.2ZM176.379 166.68C177.899 166.68 179.246 166.347 180.419 165.68C181.593 164.987 182.513 164.027 183.179 162.8C183.873 161.547 184.219 160.107 184.219 158.48C184.219 156.827 183.873 155.387 183.179 154.16C182.513 152.933 181.593 151.987 180.419 151.32C179.246 150.627 177.913 150.28 176.419 150.28C174.926 150.28 173.593 150.627 172.419 151.32C171.246 151.987 170.313 152.933 169.619 154.16C168.926 155.387 168.579 156.827 168.579 158.48C168.579 160.107 168.926 161.547 169.619 162.8C170.313 164.027 171.246 164.987 172.419 165.68C173.593 166.347 174.913 166.68 176.379 166.68ZM223.618 147.8C225.324 147.8 226.818 148.133 228.098 148.8C229.404 149.44 230.418 150.427 231.138 151.76C231.884 153.093 232.258 154.773 232.258 156.8V169H229.418V157.08C229.418 154.867 228.858 153.2 227.738 152.08C226.644 150.933 225.098 150.36 223.098 150.36C221.604 150.36 220.298 150.667 219.178 151.28C218.084 151.867 217.231 152.733 216.618 153.88C216.031 155 215.738 156.36 215.738 157.96V169H212.898V148H215.618V153.76L215.178 152.68C215.844 151.16 216.911 149.973 218.378 149.12C219.844 148.24 221.591 147.8 223.618 147.8ZM268.249 169.24C266.169 169.24 264.169 168.907 262.249 168.24C260.355 167.547 258.889 166.667 257.849 165.6L259.009 163.32C259.995 164.28 261.315 165.093 262.969 165.76C264.649 166.4 266.409 166.72 268.249 166.72C270.009 166.72 271.435 166.507 272.529 166.08C273.649 165.627 274.462 165.027 274.969 164.28C275.502 163.533 275.769 162.707 275.769 161.8C275.769 160.707 275.449 159.827 274.809 159.16C274.195 158.493 273.382 157.973 272.369 157.6C271.355 157.2 270.235 156.853 269.009 156.56C267.782 156.267 266.555 155.96 265.329 155.64C264.102 155.293 262.969 154.84 261.929 154.28C260.915 153.72 260.089 152.987 259.449 152.08C258.835 151.147 258.529 149.933 258.529 148.44C258.529 147.053 258.889 145.787 259.609 144.64C260.355 143.467 261.489 142.533 263.009 141.84C264.529 141.12 266.475 140.76 268.849 140.76C270.422 140.76 271.982 140.987 273.529 141.44C275.075 141.867 276.409 142.467 277.529 143.24L276.529 145.6C275.329 144.8 274.049 144.213 272.689 143.84C271.355 143.467 270.062 143.28 268.809 143.28C267.129 143.28 265.742 143.507 264.649 143.96C263.555 144.413 262.742 145.027 262.209 145.8C261.702 146.547 261.449 147.4 261.449 148.36C261.449 149.453 261.755 150.333 262.369 151C263.009 151.667 263.835 152.187 264.849 152.56C265.889 152.933 267.022 153.267 268.249 153.56C269.475 153.853 270.689 154.173 271.889 154.52C273.115 154.867 274.235 155.32 275.249 155.88C276.289 156.413 277.115 157.133 277.729 158.04C278.369 158.947 278.689 160.133 278.689 161.6C278.689 162.96 278.315 164.227 277.569 165.4C276.822 166.547 275.675 167.48 274.129 168.2C272.609 168.893 270.649 169.24 268.249 169.24ZM311.178 169.2C309.205 169.2 307.685 168.667 306.618 167.6C305.551 166.533 305.018 165.027 305.018 163.08V143.36H307.858V162.92C307.858 164.147 308.165 165.093 308.778 165.76C309.418 166.427 310.325 166.76 311.498 166.76C312.751 166.76 313.791 166.4 314.618 165.68L315.618 167.72C315.058 168.227 314.378 168.6 313.578 168.84C312.805 169.08 312.005 169.2 311.178 169.2ZM301.258 150.36V148H314.258V150.36H301.258ZM340.788 169V148H343.508V153.72L343.228 152.72C343.815 151.12 344.801 149.907 346.188 149.08C347.575 148.227 349.295 147.8 351.348 147.8V150.56C351.241 150.56 351.135 150.56 351.028 150.56C350.921 150.533 350.815 150.52 350.708 150.52C348.495 150.52 346.761 151.2 345.508 152.56C344.255 153.893 343.628 155.8 343.628 158.28V169H340.788ZM385.523 169.2C383.736 169.2 382.176 168.867 380.843 168.2C379.509 167.533 378.469 166.533 377.723 165.2C377.003 163.867 376.643 162.2 376.643 160.2V148H379.483V159.88C379.483 162.12 380.029 163.813 381.123 164.96C382.243 166.08 383.803 166.64 385.803 166.64C387.269 166.64 388.536 166.347 389.603 165.76C390.696 165.147 391.523 164.267 392.083 163.12C392.669 161.973 392.963 160.6 392.963 159V148H395.803V169H393.083V163.24L393.523 164.28C392.856 165.827 391.816 167.04 390.403 167.92C389.016 168.773 387.389 169.2 385.523 169.2ZM423.718 169V148H426.558V169H423.718ZM425.158 143.36C424.571 143.36 424.078 143.16 423.678 142.76C423.278 142.36 423.078 141.88 423.078 141.32C423.078 140.76 423.278 140.293 423.678 139.92C424.078 139.52 424.571 139.32 425.158 139.32C425.744 139.32 426.238 139.507 426.638 139.88C427.038 140.253 427.238 140.72 427.238 141.28C427.238 141.867 427.038 142.36 426.638 142.76C426.264 143.16 425.771 143.36 425.158 143.36Z" fill="white"/>
</g>
<rect y="117.5" width="450" height="1.92308" fill="white"/>
<defs>
<filter id="filter0_d_1115_429" x="72.1611" y="26.7612" width="57.6641" height="73.2002" filterUnits="userSpaceOnUse" color-interpolation-filters="sRGB">
<feFlood flood-opacity="0" result="BackgroundImageFix"/>
<feColorMatrix in="SourceAlpha" type="matrix" values="0 0 0 0 0 0 0 0 0 0 0 0 0 0 0 0 0 0 127 0" result="hardAlpha"/>
<feOffset dy="4"/>
<feGaussianBlur stdDeviation="1"/>
<feComposite in2="hardAlpha" operator="out"/>
<feColorMatrix type="matrix" values="0 0 0 0 0 0 0 0 0 0 0 0 0 0 0 0 0 0 0.25 0"/>
<feBlend mode="normal" in2="BackgroundImageFix" result="effect1_dropShadow_1115_429"/>
<feBlend mode="normal" in="SourceGraphic" in2="effect1_dropShadow_1115_429" result="shape"/>
</filter>
<filter id="filter1_d_1115_429" x="182.813" y="25.2241" width="63.8076" height="74.3521" filterUnits="userSpaceOnUse" color-interpolation-filters="sRGB">
<feFlood flood-opacity="0" result="BackgroundImageFix"/>
<feColorMatrix in="SourceAlpha" type="matrix" values="0 0 0 0 0 0 0 0 0 0 0 0 0 0 0 0 0 0 127 0" result="hardAlpha"/>
<feOffset dy="4"/>
<feGaussianBlur stdDeviation="1"/>
<feComposite in2="hardAlpha" operator="out"/>
<feColorMatrix type="matrix" values="0 0 0 0 0 0 0 0 0 0 0 0 0 0 0 0 0 0 0.25 0"/>
<feBlend mode="normal" in2="BackgroundImageFix" result="effect1_dropShadow_1115_429"/>
<feBlend mode="normal" in="SourceGraphic" in2="effect1_dropShadow_1115_429" result="shape"/>
</filter>
<filter id="filter2_d_1115_429" x="299.871" y="25.2241" width="54.0166" height="74.3521" filterUnits="userSpaceOnUse" color-interpolation-filters="sRGB">
<feFlood flood-opacity="0" result="BackgroundImageFix"/>
<feColorMatrix in="SourceAlpha" type="matrix" values="0 0 0 0 0 0 0 0 0 0 0 0 0 0 0 0 0 0 127 0" result="hardAlpha"/>
<feOffset dy="4"/>
<feGaussianBlur stdDeviation="1"/>
<feComposite in2="hardAlpha" operator="out"/>
<feColorMatrix type="matrix" values="0 0 0 0 0 0 0 0 0 0 0 0 0 0 0 0 0 0 0.25 0"/>
<feBlend mode="normal" in2="BackgroundImageFix" result="effect1_dropShadow_1115_429"/>
<feBlend mode="normal" in="SourceGraphic" in2="effect1_dropShadow_1115_429" result="shape"/>
</filter>
<filter id="filter3_d_1115_429" x="23.5596" y="139.32" width="407.679" height="37.9204" filterUnits="userSpaceOnUse" color-interpolation-filters="sRGB">
<feFlood flood-opacity="0" result="BackgroundImageFix"/>
<feColorMatrix in="SourceAlpha" type="matrix" values="0 0 0 0 0 0 0 0 0 0 0 0 0 0 0 0 0 0 127 0" result="hardAlpha"/>
<feOffset dy="4"/>
<feGaussianBlur stdDeviation="2"/>
<feComposite in2="hardAlpha" operator="out"/>
<feColorMatrix type="matrix" values="0 0 0 0 0 0 0 0 0 0 0 0 0 0 0 0 0 0 0.25 0"/>
<feBlend mode="normal" in2="BackgroundImageFix" result="effect1_dropShadow_1115_429"/>
<feBlend mode="normal" in="SourceGraphic" in2="effect1_dropShadow_1115_429" result="shape"/>
</filter>
</defs>
</svg>
