<svg width="500" height="734" viewBox="0 0 500 734" fill="none" xmlns="http://www.w3.org/2000/svg">
<path d="M0 8C0 3.58172 3.58172 0 8 0H500V734H7.99999C3.58171 734 0 730.418 0 726V8Z" fill="#33603D"/>
<g filter="url(#filter0_d_1150_236)">
<path d="M99.1608 362.961V295.761H124.313C130.009 295.761 134.905 296.689 139.001 298.545C143.097 300.337 146.233 302.961 148.409 306.417C150.649 309.809 151.769 313.937 151.769 318.801C151.769 323.537 150.649 327.633 148.409 331.089C146.233 334.481 143.097 337.105 139.001 338.961C134.905 340.753 130.009 341.649 124.313 341.649H103.097L106.265 338.385V362.961H99.1608ZM145.049 362.961L127.769 338.577H135.449L152.825 362.961H145.049ZM106.265 338.961L103.097 335.601H124.121C130.841 335.601 135.929 334.129 139.385 331.185C142.905 328.241 144.665 324.113 144.665 318.801C144.665 313.425 142.905 309.265 139.385 306.321C135.929 303.377 130.841 301.905 124.121 301.905H103.097L106.265 298.545V338.961Z" fill="white"/>
</g>
<g filter="url(#filter1_d_1150_236)">
<path d="M244.949 362.576C239.893 362.576 235.221 361.744 230.933 360.08C226.645 358.352 222.933 355.952 219.797 352.88C216.661 349.808 214.197 346.192 212.405 342.032C210.677 337.872 209.813 333.328 209.813 328.4C209.813 323.472 210.677 318.928 212.405 314.768C214.197 310.608 216.661 306.992 219.797 303.92C222.997 300.848 226.741 298.48 231.029 296.816C235.317 295.088 239.989 294.224 245.045 294.224C249.909 294.224 254.485 295.056 258.773 296.72C263.061 298.32 266.677 300.752 269.621 304.016L265.109 308.528C262.357 305.712 259.317 303.696 255.989 302.48C252.661 301.2 249.077 300.56 245.237 300.56C241.205 300.56 237.461 301.264 234.005 302.672C230.549 304.016 227.541 305.968 224.981 308.528C222.421 311.024 220.405 313.968 218.933 317.36C217.525 320.688 216.821 324.368 216.821 328.4C216.821 332.432 217.525 336.144 218.933 339.536C220.405 342.864 222.421 345.808 224.981 348.368C227.541 350.864 230.549 352.816 234.005 354.224C237.461 355.568 241.205 356.24 245.237 356.24C249.077 356.24 252.661 355.6 255.989 354.32C259.317 353.04 262.357 350.992 265.109 348.176L269.621 352.688C266.677 355.952 263.061 358.416 258.773 360.08C254.485 361.744 249.877 362.576 244.949 362.576Z" fill="white"/>
</g>
<g filter="url(#filter2_d_1150_236)">
<path d="M351.831 362.576C346.839 362.576 342.039 361.776 337.431 360.176C332.887 358.512 329.367 356.4 326.871 353.84L329.655 348.368C332.023 350.672 335.191 352.624 339.159 354.224C343.191 355.76 347.415 356.528 351.831 356.528C356.055 356.528 359.479 356.016 362.103 354.992C364.791 353.904 366.743 352.464 367.959 350.672C369.239 348.88 369.879 346.896 369.879 344.72C369.879 342.096 369.111 339.984 367.575 338.384C366.103 336.784 364.151 335.536 361.719 334.64C359.287 333.68 356.599 332.848 353.655 332.144C350.711 331.44 347.767 330.704 344.823 329.936C341.879 329.104 339.159 328.016 336.663 326.672C334.231 325.328 332.247 323.568 330.711 321.392C329.239 319.152 328.503 316.24 328.503 312.656C328.503 309.328 329.367 306.288 331.095 303.536C332.887 300.72 335.607 298.48 339.255 296.816C342.903 295.088 347.575 294.224 353.271 294.224C357.047 294.224 360.791 294.768 364.503 295.856C368.215 296.88 371.415 298.32 374.103 300.176L371.703 305.84C368.823 303.92 365.751 302.512 362.487 301.616C359.287 300.72 356.183 300.272 353.175 300.272C349.143 300.272 345.815 300.816 343.191 301.904C340.567 302.992 338.615 304.464 337.335 306.32C336.119 308.112 335.511 310.16 335.511 312.464C335.511 315.088 336.247 317.2 337.719 318.8C339.255 320.4 341.239 321.648 343.671 322.544C346.167 323.44 348.887 324.24 351.831 324.944C354.775 325.648 357.687 326.416 360.567 327.248C363.511 328.08 366.199 329.168 368.631 330.512C371.127 331.792 373.111 333.52 374.583 335.696C376.119 337.872 376.887 340.72 376.887 344.24C376.887 347.504 375.991 350.544 374.199 353.36C372.407 356.112 369.655 358.352 365.943 360.08C362.295 361.744 357.591 362.576 351.831 362.576Z" fill="white"/>
</g>
<g filter="url(#filter3_d_1150_236)">
<path d="M52.56 438V410H63.04C65.4133 410 67.4533 410.387 69.16 411.16C70.8667 411.907 72.1733 413 73.08 414.44C74.0133 415.853 74.48 417.573 74.48 419.6C74.48 421.573 74.0133 423.28 73.08 424.72C72.1733 426.133 70.8667 427.227 69.16 428C67.4533 428.747 65.4133 429.12 63.04 429.12H54.2L55.52 427.76V438H52.56ZM71.68 438L64.48 427.84H67.68L74.92 438H71.68ZM55.52 428L54.2 426.6H62.96C65.76 426.6 67.88 425.987 69.32 424.76C70.7867 423.533 71.52 421.813 71.52 419.6C71.52 417.36 70.7867 415.627 69.32 414.4C67.88 413.173 65.76 412.56 62.96 412.56H54.2L55.52 411.16V428ZM109.786 438.2C107.6 438.2 105.68 437.747 104.026 436.84C102.373 435.907 101.08 434.64 100.146 433.04C99.2129 431.413 98.7463 429.56 98.7463 427.48C98.7463 425.4 99.1863 423.56 100.066 421.96C100.973 420.36 102.2 419.107 103.746 418.2C105.32 417.267 107.08 416.8 109.026 416.8C111 416.8 112.746 417.253 114.266 418.16C115.813 419.04 117.026 420.293 117.906 421.92C118.786 423.52 119.226 425.373 119.226 427.48C119.226 427.613 119.213 427.76 119.186 427.92C119.186 428.053 119.186 428.2 119.186 428.36H100.906V426.24H117.666L116.546 427.08C116.546 425.56 116.213 424.213 115.546 423.04C114.906 421.84 114.026 420.907 112.906 420.24C111.786 419.573 110.493 419.24 109.026 419.24C107.586 419.24 106.293 419.573 105.146 420.24C104 420.907 103.106 421.84 102.466 423.04C101.826 424.24 101.506 425.613 101.506 427.16V427.6C101.506 429.2 101.853 430.613 102.546 431.84C103.266 433.04 104.253 433.987 105.506 434.68C106.786 435.347 108.24 435.68 109.866 435.68C111.146 435.68 112.333 435.453 113.426 435C114.546 434.547 115.506 433.853 116.306 432.92L117.906 434.76C116.973 435.88 115.8 436.733 114.386 437.32C113 437.907 111.466 438.2 109.786 438.2ZM157.767 438.24C155.66 438.24 153.714 437.893 151.927 437.2C150.14 436.48 148.594 435.48 147.287 434.2C145.98 432.92 144.954 431.413 144.207 429.68C143.487 427.947 143.127 426.053 143.127 424C143.127 421.947 143.487 420.053 144.207 418.32C144.954 416.587 145.98 415.08 147.287 413.8C148.62 412.52 150.18 411.533 151.967 410.84C153.754 410.12 155.7 409.76 157.807 409.76C159.834 409.76 161.74 410.107 163.527 410.8C165.314 411.467 166.82 412.48 168.047 413.84L166.167 415.72C165.02 414.547 163.754 413.707 162.367 413.2C160.98 412.667 159.487 412.4 157.887 412.4C156.207 412.4 154.647 412.693 153.207 413.28C151.767 413.84 150.514 414.653 149.447 415.72C148.38 416.76 147.54 417.987 146.927 419.4C146.34 420.787 146.047 422.32 146.047 424C146.047 425.68 146.34 427.227 146.927 428.64C147.54 430.027 148.38 431.253 149.447 432.32C150.514 433.36 151.767 434.173 153.207 434.76C154.647 435.32 156.207 435.6 157.887 435.6C159.487 435.6 160.98 435.333 162.367 434.8C163.754 434.267 165.02 433.413 166.167 432.24L168.047 434.12C166.82 435.48 165.314 436.507 163.527 437.2C161.74 437.893 159.82 438.24 157.767 438.24ZM201.379 438.2C199.353 438.2 197.526 437.747 195.899 436.84C194.299 435.907 193.033 434.64 192.099 433.04C191.166 431.413 190.699 429.56 190.699 427.48C190.699 425.373 191.166 423.52 192.099 421.92C193.033 420.32 194.299 419.067 195.899 418.16C197.499 417.253 199.326 416.8 201.379 416.8C203.459 416.8 205.299 417.253 206.899 418.16C208.526 419.067 209.793 420.32 210.699 421.92C211.633 423.52 212.099 425.373 212.099 427.48C212.099 429.56 211.633 431.413 210.699 433.04C209.793 434.64 208.526 435.907 206.899 436.84C205.273 437.747 203.433 438.2 201.379 438.2ZM201.379 435.68C202.899 435.68 204.246 435.347 205.419 434.68C206.593 433.987 207.513 433.027 208.179 431.8C208.873 430.547 209.219 429.107 209.219 427.48C209.219 425.827 208.873 424.387 208.179 423.16C207.513 421.933 206.593 420.987 205.419 420.32C204.246 419.627 202.913 419.28 201.419 419.28C199.926 419.28 198.593 419.627 197.419 420.32C196.246 420.987 195.313 421.933 194.619 423.16C193.926 424.387 193.579 425.827 193.579 427.48C193.579 429.107 193.926 430.547 194.619 431.8C195.313 433.027 196.246 433.987 197.419 434.68C198.593 435.347 199.913 435.68 201.379 435.68ZM248.618 416.8C250.324 416.8 251.818 417.133 253.098 417.8C254.404 418.44 255.418 419.427 256.138 420.76C256.884 422.093 257.258 423.773 257.258 425.8V438H254.418V426.08C254.418 423.867 253.858 422.2 252.738 421.08C251.644 419.933 250.098 419.36 248.098 419.36C246.604 419.36 245.298 419.667 244.178 420.28C243.084 420.867 242.231 421.733 241.618 422.88C241.031 424 240.738 425.36 240.738 426.96V438H237.898V417H240.618V422.76L240.178 421.68C240.844 420.16 241.911 418.973 243.378 418.12C244.844 417.24 246.591 416.8 248.618 416.8ZM293.249 438.24C291.169 438.24 289.169 437.907 287.249 437.24C285.355 436.547 283.889 435.667 282.849 434.6L284.009 432.32C284.995 433.28 286.315 434.093 287.969 434.76C289.649 435.4 291.409 435.72 293.249 435.72C295.009 435.72 296.435 435.507 297.529 435.08C298.649 434.627 299.462 434.027 299.969 433.28C300.502 432.533 300.769 431.707 300.769 430.8C300.769 429.707 300.449 428.827 299.809 428.16C299.195 427.493 298.382 426.973 297.369 426.6C296.355 426.2 295.235 425.853 294.009 425.56C292.782 425.267 291.555 424.96 290.329 424.64C289.102 424.293 287.969 423.84 286.929 423.28C285.915 422.72 285.089 421.987 284.449 421.08C283.835 420.147 283.529 418.933 283.529 417.44C283.529 416.053 283.889 414.787 284.609 413.64C285.355 412.467 286.489 411.533 288.009 410.84C289.529 410.12 291.475 409.76 293.849 409.76C295.422 409.76 296.982 409.987 298.529 410.44C300.075 410.867 301.409 411.467 302.529 412.24L301.529 414.6C300.329 413.8 299.049 413.213 297.689 412.84C296.355 412.467 295.062 412.28 293.809 412.28C292.129 412.28 290.742 412.507 289.649 412.96C288.555 413.413 287.742 414.027 287.209 414.8C286.702 415.547 286.449 416.4 286.449 417.36C286.449 418.453 286.755 419.333 287.369 420C288.009 420.667 288.835 421.187 289.849 421.56C290.889 421.933 292.022 422.267 293.249 422.56C294.475 422.853 295.689 423.173 296.889 423.52C298.115 423.867 299.235 424.32 300.249 424.88C301.289 425.413 302.115 426.133 302.729 427.04C303.369 427.947 303.689 429.133 303.689 430.6C303.689 431.96 303.315 433.227 302.569 434.4C301.822 435.547 300.675 436.48 299.129 437.2C297.609 437.893 295.649 438.24 293.249 438.24ZM336.178 438.2C334.205 438.2 332.685 437.667 331.618 436.6C330.551 435.533 330.018 434.027 330.018 432.08V412.36H332.858V431.92C332.858 433.147 333.165 434.093 333.778 434.76C334.418 435.427 335.325 435.76 336.498 435.76C337.751 435.76 338.791 435.4 339.618 434.68L340.618 436.72C340.058 437.227 339.378 437.6 338.578 437.84C337.805 438.08 337.005 438.2 336.178 438.2ZM326.258 419.36V417H339.258V419.36H326.258ZM365.788 438V417H368.508V422.72L368.228 421.72C368.815 420.12 369.801 418.907 371.188 418.08C372.575 417.227 374.295 416.8 376.348 416.8V419.56C376.241 419.56 376.135 419.56 376.028 419.56C375.921 419.533 375.815 419.52 375.708 419.52C373.495 419.52 371.761 420.2 370.508 421.56C369.255 422.893 368.628 424.8 368.628 427.28V438H365.788ZM410.523 438.2C408.736 438.2 407.176 437.867 405.843 437.2C404.509 436.533 403.469 435.533 402.723 434.2C402.003 432.867 401.643 431.2 401.643 429.2V417H404.483V428.88C404.483 431.12 405.029 432.813 406.123 433.96C407.243 435.08 408.803 435.64 410.803 435.64C412.269 435.64 413.536 435.347 414.603 434.76C415.696 434.147 416.523 433.267 417.083 432.12C417.669 430.973 417.963 429.6 417.963 428V417H420.803V438H418.083V432.24L418.523 433.28C417.856 434.827 416.816 436.04 415.403 436.92C414.016 437.773 412.389 438.2 410.523 438.2ZM448.718 438V417H451.558V438H448.718ZM450.158 412.36C449.571 412.36 449.078 412.16 448.678 411.76C448.278 411.36 448.078 410.88 448.078 410.32C448.078 409.76 448.278 409.293 448.678 408.92C449.078 408.52 449.571 408.32 450.158 408.32C450.744 408.32 451.238 408.507 451.638 408.88C452.038 409.253 452.238 409.72 452.238 410.28C452.238 410.867 452.038 411.36 451.638 411.76C451.264 412.16 450.771 412.36 450.158 412.36Z" fill="white"/>
</g>
<rect x="25" y="386.5" width="450" height="1.92308" fill="white"/>
<defs>
<filter id="filter0_d_1150_236" x="97.1611" y="295.761" width="57.6641" height="73.2002" filterUnits="userSpaceOnUse" color-interpolation-filters="sRGB">
<feFlood flood-opacity="0" result="BackgroundImageFix"/>
<feColorMatrix in="SourceAlpha" type="matrix" values="0 0 0 0 0 0 0 0 0 0 0 0 0 0 0 0 0 0 127 0" result="hardAlpha"/>
<feOffset dy="4"/>
<feGaussianBlur stdDeviation="1"/>
<feComposite in2="hardAlpha" operator="out"/>
<feColorMatrix type="matrix" values="0 0 0 0 0 0 0 0 0 0 0 0 0 0 0 0 0 0 0.25 0"/>
<feBlend mode="normal" in2="BackgroundImageFix" result="effect1_dropShadow_1150_236"/>
<feBlend mode="normal" in="SourceGraphic" in2="effect1_dropShadow_1150_236" result="shape"/>
</filter>
<filter id="filter1_d_1150_236" x="207.813" y="294.224" width="63.8076" height="74.3521" filterUnits="userSpaceOnUse" color-interpolation-filters="sRGB">
<feFlood flood-opacity="0" result="BackgroundImageFix"/>
<feColorMatrix in="SourceAlpha" type="matrix" values="0 0 0 0 0 0 0 0 0 0 0 0 0 0 0 0 0 0 127 0" result="hardAlpha"/>
<feOffset dy="4"/>
<feGaussianBlur stdDeviation="1"/>
<feComposite in2="hardAlpha" operator="out"/>
<feColorMatrix type="matrix" values="0 0 0 0 0 0 0 0 0 0 0 0 0 0 0 0 0 0 0.25 0"/>
<feBlend mode="normal" in2="BackgroundImageFix" result="effect1_dropShadow_1150_236"/>
<feBlend mode="normal" in="SourceGraphic" in2="effect1_dropShadow_1150_236" result="shape"/>
</filter>
<filter id="filter2_d_1150_236" x="324.871" y="294.224" width="54.0166" height="74.3521" filterUnits="userSpaceOnUse" color-interpolation-filters="sRGB">
<feFlood flood-opacity="0" result="BackgroundImageFix"/>
<feColorMatrix in="SourceAlpha" type="matrix" values="0 0 0 0 0 0 0 0 0 0 0 0 0 0 0 0 0 0 127 0" result="hardAlpha"/>
<feOffset dy="4"/>
<feGaussianBlur stdDeviation="1"/>
<feComposite in2="hardAlpha" operator="out"/>
<feColorMatrix type="matrix" values="0 0 0 0 0 0 0 0 0 0 0 0 0 0 0 0 0 0 0.25 0"/>
<feBlend mode="normal" in2="BackgroundImageFix" result="effect1_dropShadow_1150_236"/>
<feBlend mode="normal" in="SourceGraphic" in2="effect1_dropShadow_1150_236" result="shape"/>
</filter>
<filter id="filter3_d_1150_236" x="48.5596" y="408.32" width="407.679" height="37.9204" filterUnits="userSpaceOnUse" color-interpolation-filters="sRGB">
<feFlood flood-opacity="0" result="BackgroundImageFix"/>
<feColorMatrix in="SourceAlpha" type="matrix" values="0 0 0 0 0 0 0 0 0 0 0 0 0 0 0 0 0 0 127 0" result="hardAlpha"/>
<feOffset dy="4"/>
<feGaussianBlur stdDeviation="2"/>
<feComposite in2="hardAlpha" operator="out"/>
<feColorMatrix type="matrix" values="0 0 0 0 0 0 0 0 0 0 0 0 0 0 0 0 0 0 0.25 0"/>
<feBlend mode="normal" in2="BackgroundImageFix" result="effect1_dropShadow_1150_236"/>
<feBlend mode="normal" in="SourceGraphic" in2="effect1_dropShadow_1150_236" result="shape"/>
</filter>
</defs>
</svg>
