<svg width="536" height="208" viewBox="0 0 536 208" fill="none" xmlns="http://www.w3.org/2000/svg">
<g filter="url(#filter0_d_58_12)">
<path d="M115.592 125V35.4H149.128C156.723 35.4 163.251 36.6373 168.712 39.112C174.173 41.5013 178.355 45 181.256 49.608C184.243 54.1307 185.736 59.6347 185.736 66.12C185.736 72.4347 184.243 77.896 181.256 82.504C178.355 87.0267 174.173 90.5253 168.712 93C163.251 95.3893 156.723 96.584 149.128 96.584H120.84L125.064 92.232V125H115.592ZM176.776 125L153.736 92.488H163.976L187.144 125H176.776ZM125.064 93L120.84 88.52H148.872C157.832 88.52 164.616 86.5573 169.224 82.632C173.917 78.7067 176.264 73.2027 176.264 66.12C176.264 58.952 173.917 53.4053 169.224 49.48C164.616 45.5547 157.832 43.592 148.872 43.592H120.84L125.064 39.112V93Z" fill="#228137"/>
</g>
<g filter="url(#filter1_d_58_12)">
<path d="M279.504 124.768C272.763 124.768 266.533 123.659 260.816 121.44C255.099 119.136 250.149 115.936 245.968 111.84C241.787 107.744 238.501 102.923 236.112 97.376C233.808 91.8293 232.656 85.7707 232.656 79.2C232.656 72.6293 233.808 66.5707 236.112 61.024C238.501 55.4773 241.787 50.656 245.968 46.56C250.235 42.464 255.227 39.3067 260.944 37.088C266.661 34.784 272.891 33.632 279.632 33.632C286.117 33.632 292.219 34.7413 297.936 36.96C303.653 39.0933 308.475 42.336 312.4 46.688L306.384 52.704C302.715 48.9493 298.661 46.2613 294.224 44.64C289.787 42.9333 285.008 42.08 279.888 42.08C274.512 42.08 269.52 43.0187 264.912 44.896C260.304 46.688 256.293 49.2907 252.88 52.704C249.467 56.032 246.779 59.9573 244.816 64.48C242.939 68.9173 242 73.824 242 79.2C242 84.576 242.939 89.5253 244.816 94.048C246.779 98.4853 249.467 102.411 252.88 105.824C256.293 109.152 260.304 111.755 264.912 113.632C269.52 115.424 274.512 116.32 279.888 116.32C285.008 116.32 289.787 115.467 294.224 113.76C298.661 112.053 302.715 109.323 306.384 105.568L312.4 111.584C308.475 115.936 303.653 119.221 297.936 121.44C292.219 123.659 286.075 124.768 279.504 124.768Z" fill="#228137"/>
</g>
<g filter="url(#filter2_d_58_12)">
<path d="M391.296 124.768C384.64 124.768 378.24 123.701 372.096 121.568C366.037 119.349 361.344 116.533 358.016 113.12L361.728 105.824C364.885 108.896 369.109 111.499 374.4 113.632C379.776 115.68 385.408 116.704 391.296 116.704C396.928 116.704 401.493 116.021 404.992 114.656C408.576 113.205 411.179 111.285 412.8 108.896C414.507 106.507 415.36 103.861 415.36 100.96C415.36 97.4613 414.336 94.6453 412.288 92.512C410.325 90.3787 407.723 88.7147 404.48 87.52C401.237 86.24 397.653 85.1307 393.728 84.192C389.803 83.2533 385.877 82.272 381.952 81.248C378.027 80.1387 374.4 78.688 371.072 76.896C367.829 75.104 365.184 72.7573 363.136 69.856C361.173 66.8693 360.192 62.9867 360.192 58.208C360.192 53.7707 361.344 49.7173 363.648 46.048C366.037 42.2933 369.664 39.3067 374.528 37.088C379.392 34.784 385.621 33.632 393.216 33.632C398.251 33.632 403.243 34.3573 408.192 35.808C413.141 37.1733 417.408 39.0933 420.992 41.568L417.792 49.12C413.952 46.56 409.856 44.6827 405.504 43.488C401.237 42.2933 397.099 41.696 393.088 41.696C387.712 41.696 383.275 42.4213 379.776 43.872C376.277 45.3227 373.675 47.2853 371.968 49.76C370.347 52.1493 369.536 54.88 369.536 57.952C369.536 61.4507 370.517 64.2667 372.48 66.4C374.528 68.5333 377.173 70.1973 380.416 71.392C383.744 72.5867 387.371 73.6533 391.296 74.592C395.221 75.5307 399.104 76.5547 402.944 77.664C406.869 78.7733 410.453 80.224 413.696 82.016C417.024 83.7227 419.669 86.0267 421.632 88.928C423.68 91.8293 424.704 95.6267 424.704 100.32C424.704 104.672 423.509 108.725 421.12 112.48C418.731 116.149 415.061 119.136 410.112 121.44C405.248 123.659 398.976 124.768 391.296 124.768Z" fill="#228137"/>
</g>
<g filter="url(#filter3_d_58_12)">
<path d="M28.472 197V163.4H41.048C43.896 163.4 46.344 163.864 48.392 164.792C50.44 165.688 52.008 167 53.096 168.728C54.216 170.424 54.776 172.488 54.776 174.92C54.776 177.288 54.216 179.336 53.096 181.064C52.008 182.76 50.44 184.072 48.392 185C46.344 185.896 43.896 186.344 41.048 186.344H30.44L32.024 184.712V197H28.472ZM51.416 197L42.776 184.808H46.616L55.304 197H51.416ZM32.024 185L30.44 183.32H40.952C44.312 183.32 46.856 182.584 48.584 181.112C50.344 179.64 51.224 177.576 51.224 174.92C51.224 172.232 50.344 170.152 48.584 168.68C46.856 167.208 44.312 166.472 40.952 166.472H30.44L32.024 164.792V185ZM97.1435 197.24C94.5195 197.24 92.2155 196.696 90.2315 195.608C88.2475 194.488 86.6955 192.968 85.5755 191.048C84.4555 189.096 83.8955 186.872 83.8955 184.376C83.8955 181.88 84.4235 179.672 85.4795 177.752C86.5675 175.832 88.0395 174.328 89.8955 173.24C91.7835 172.12 93.8955 171.56 96.2315 171.56C98.5995 171.56 100.696 172.104 102.52 173.192C104.376 174.248 105.832 175.752 106.888 177.704C107.944 179.624 108.472 181.848 108.472 184.376C108.472 184.536 108.456 184.712 108.424 184.904C108.424 185.064 108.424 185.24 108.424 185.432H86.4875V182.888H106.6L105.256 183.896C105.256 182.072 104.856 180.456 104.056 179.048C103.288 177.608 102.232 176.488 100.888 175.688C99.5435 174.888 97.9915 174.488 96.2315 174.488C94.5035 174.488 92.9515 174.888 91.5755 175.688C90.1995 176.488 89.1275 177.608 88.3595 179.048C87.5915 180.488 87.2075 182.136 87.2075 183.992V184.52C87.2075 186.44 87.6235 188.136 88.4555 189.608C89.3195 191.048 90.5035 192.184 92.0075 193.016C93.5435 193.816 95.2875 194.216 97.2395 194.216C98.7755 194.216 100.2 193.944 101.512 193.4C102.856 192.856 104.008 192.024 104.968 190.904L106.888 193.112C105.768 194.456 104.36 195.48 102.664 196.184C101 196.888 99.1595 197.24 97.1435 197.24ZM154.72 197.288C152.192 197.288 149.856 196.872 147.712 196.04C145.568 195.176 143.712 193.976 142.144 192.44C140.576 190.904 139.344 189.096 138.448 187.016C137.584 184.936 137.152 182.664 137.152 180.2C137.152 177.736 137.584 175.464 138.448 173.384C139.344 171.304 140.576 169.496 142.144 167.96C143.744 166.424 145.616 165.24 147.76 164.408C149.904 163.544 152.24 163.112 154.768 163.112C157.2 163.112 159.488 163.528 161.632 164.36C163.776 165.16 165.584 166.376 167.056 168.008L164.8 170.264C163.424 168.856 161.904 167.848 160.24 167.24C158.576 166.6 156.784 166.28 154.864 166.28C152.848 166.28 150.976 166.632 149.248 167.336C147.52 168.008 146.016 168.984 144.736 170.264C143.456 171.512 142.448 172.984 141.712 174.68C141.008 176.344 140.656 178.184 140.656 180.2C140.656 182.216 141.008 184.072 141.712 185.768C142.448 187.432 143.456 188.904 144.736 190.184C146.016 191.432 147.52 192.408 149.248 193.112C150.976 193.784 152.848 194.12 154.864 194.12C156.784 194.12 158.576 193.8 160.24 193.16C161.904 192.52 163.424 191.496 164.8 190.088L167.056 192.344C165.584 193.976 163.776 195.208 161.632 196.04C159.488 196.872 157.184 197.288 154.72 197.288ZM207.055 197.24C204.623 197.24 202.431 196.696 200.479 195.608C198.559 194.488 197.039 192.968 195.919 191.048C194.799 189.096 194.239 186.872 194.239 184.376C194.239 181.848 194.799 179.624 195.919 177.704C197.039 175.784 198.559 174.28 200.479 173.192C202.399 172.104 204.591 171.56 207.055 171.56C209.551 171.56 211.759 172.104 213.679 173.192C215.631 174.28 217.151 175.784 218.239 177.704C219.359 179.624 219.919 181.848 219.919 184.376C219.919 186.872 219.359 189.096 218.239 191.048C217.151 192.968 215.631 194.488 213.679 195.608C211.727 196.696 209.519 197.24 207.055 197.24ZM207.055 194.216C208.879 194.216 210.495 193.816 211.903 193.016C213.311 192.184 214.415 191.032 215.215 189.56C216.047 188.056 216.463 186.328 216.463 184.376C216.463 182.392 216.047 180.664 215.215 179.192C214.415 177.72 213.311 176.584 211.903 175.784C210.495 174.952 208.895 174.536 207.103 174.536C205.311 174.536 203.711 174.952 202.303 175.784C200.895 176.584 199.775 177.72 198.943 179.192C198.111 180.664 197.695 182.392 197.695 184.376C197.695 186.328 198.111 188.056 198.943 189.56C199.775 191.032 200.895 192.184 202.303 193.016C203.711 193.816 205.295 194.216 207.055 194.216ZM263.741 171.56C265.789 171.56 267.581 171.96 269.117 172.76C270.685 173.528 271.901 174.712 272.765 176.312C273.661 177.912 274.109 179.928 274.109 182.36V197H270.701V182.696C270.701 180.04 270.029 178.04 268.685 176.696C267.373 175.32 265.517 174.632 263.117 174.632C261.325 174.632 259.757 175 258.413 175.736C257.101 176.44 256.077 177.48 255.341 178.856C254.637 180.2 254.285 181.832 254.285 183.752V197H250.877V171.8H254.141V178.712L253.613 177.416C254.413 175.592 255.693 174.168 257.453 173.144C259.213 172.088 261.309 171.56 263.741 171.56ZM317.299 197.288C314.803 197.288 312.403 196.888 310.099 196.088C307.827 195.256 306.067 194.2 304.819 192.92L306.211 190.184C307.395 191.336 308.979 192.312 310.963 193.112C312.979 193.88 315.091 194.264 317.299 194.264C319.411 194.264 321.123 194.008 322.435 193.496C323.779 192.952 324.755 192.232 325.363 191.336C326.003 190.44 326.323 189.448 326.323 188.36C326.323 187.048 325.939 185.992 325.171 185.192C324.435 184.392 323.459 183.768 322.243 183.32C321.027 182.84 319.683 182.424 318.211 182.072C316.739 181.72 315.267 181.352 313.795 180.968C312.323 180.552 310.963 180.008 309.715 179.336C308.499 178.664 307.507 177.784 306.739 176.696C306.003 175.576 305.635 174.12 305.635 172.328C305.635 170.664 306.067 169.144 306.931 167.768C307.827 166.36 309.187 165.24 311.011 164.408C312.835 163.544 315.171 163.112 318.019 163.112C319.907 163.112 321.779 163.384 323.635 163.928C325.491 164.44 327.091 165.16 328.435 166.088L327.234 168.92C325.795 167.96 324.259 167.256 322.627 166.808C321.027 166.36 319.475 166.136 317.971 166.136C315.955 166.136 314.291 166.408 312.979 166.952C311.667 167.496 310.691 168.232 310.051 169.16C309.443 170.056 309.139 171.08 309.139 172.232C309.139 173.544 309.507 174.6 310.243 175.4C311.011 176.2 312.003 176.824 313.219 177.272C314.467 177.72 315.827 178.12 317.299 178.472C318.771 178.824 320.227 179.208 321.667 179.624C323.139 180.04 324.483 180.584 325.699 181.256C326.947 181.896 327.939 182.76 328.675 183.848C329.443 184.936 329.827 186.36 329.827 188.12C329.827 189.752 329.379 191.272 328.483 192.68C327.587 194.056 326.211 195.176 324.355 196.04C322.531 196.872 320.179 197.288 317.299 197.288ZM368.814 197.24C366.446 197.24 364.622 196.6 363.342 195.32C362.062 194.04 361.422 192.232 361.422 189.896V166.232H364.83V189.704C364.83 191.176 365.198 192.312 365.934 193.112C366.702 193.912 367.79 194.312 369.198 194.312C370.702 194.312 371.95 193.88 372.942 193.016L374.142 195.464C373.47 196.072 372.654 196.52 371.694 196.808C370.766 197.096 369.806 197.24 368.814 197.24ZM356.91 174.632V171.8H372.51V174.632H356.91ZM404.346 197V171.8H407.61V178.664L407.274 177.464C407.978 175.544 409.162 174.088 410.826 173.096C412.49 172.072 414.554 171.56 417.018 171.56V174.872C416.89 174.872 416.762 174.872 416.634 174.872C416.506 174.84 416.378 174.824 416.25 174.824C413.594 174.824 411.514 175.64 410.01 177.272C408.506 178.872 407.754 181.16 407.754 184.136V197H404.346ZM458.027 197.24C455.883 197.24 454.011 196.84 452.411 196.04C450.811 195.24 449.563 194.04 448.667 192.44C447.803 190.84 447.371 188.84 447.371 186.44V171.8H450.779V186.056C450.779 188.744 451.435 190.776 452.747 192.152C454.091 193.496 455.963 194.168 458.363 194.168C460.123 194.168 461.643 193.816 462.923 193.112C464.235 192.376 465.227 191.32 465.899 189.944C466.603 188.568 466.955 186.92 466.955 185V171.8H470.363V197H467.099V190.088L467.627 191.336C466.827 193.192 465.579 194.648 463.883 195.704C462.219 196.728 460.267 197.24 458.027 197.24ZM503.861 197V171.8H507.269V197H503.861ZM505.589 166.232C504.885 166.232 504.293 165.992 503.813 165.512C503.333 165.032 503.093 164.456 503.093 163.784C503.093 163.112 503.333 162.552 503.813 162.104C504.293 161.624 504.885 161.384 505.589 161.384C506.293 161.384 506.885 161.608 507.365 162.056C507.845 162.504 508.085 163.064 508.085 163.736C508.085 164.44 507.845 165.032 507.365 165.512C506.917 165.992 506.325 166.232 505.589 166.232Z" fill="#228137"/>
</g>
<rect y="143" width="536" height="2" fill="#228137"/>
<defs>
<filter id="filter0_d_58_12" x="113.592" y="35.4" width="75.5522" height="95.6" filterUnits="userSpaceOnUse" color-interpolation-filters="sRGB">
<feFlood flood-opacity="0" result="BackgroundImageFix"/>
<feColorMatrix in="SourceAlpha" type="matrix" values="0 0 0 0 0 0 0 0 0 0 0 0 0 0 0 0 0 0 127 0" result="hardAlpha"/>
<feOffset dy="4"/>
<feGaussianBlur stdDeviation="1"/>
<feComposite in2="hardAlpha" operator="out"/>
<feColorMatrix type="matrix" values="0 0 0 0 0 0 0 0 0 0 0 0 0 0 0 0 0 0 0.25 0"/>
<feBlend mode="normal" in2="BackgroundImageFix" result="effect1_dropShadow_58_12"/>
<feBlend mode="normal" in="SourceGraphic" in2="effect1_dropShadow_58_12" result="shape"/>
</filter>
<filter id="filter1_d_58_12" x="230.656" y="33.632" width="83.7441" height="97.136" filterUnits="userSpaceOnUse" color-interpolation-filters="sRGB">
<feFlood flood-opacity="0" result="BackgroundImageFix"/>
<feColorMatrix in="SourceAlpha" type="matrix" values="0 0 0 0 0 0 0 0 0 0 0 0 0 0 0 0 0 0 127 0" result="hardAlpha"/>
<feOffset dy="4"/>
<feGaussianBlur stdDeviation="1"/>
<feComposite in2="hardAlpha" operator="out"/>
<feColorMatrix type="matrix" values="0 0 0 0 0 0 0 0 0 0 0 0 0 0 0 0 0 0 0.25 0"/>
<feBlend mode="normal" in2="BackgroundImageFix" result="effect1_dropShadow_58_12"/>
<feBlend mode="normal" in="SourceGraphic" in2="effect1_dropShadow_58_12" result="shape"/>
</filter>
<filter id="filter2_d_58_12" x="356.016" y="33.632" width="70.688" height="97.136" filterUnits="userSpaceOnUse" color-interpolation-filters="sRGB">
<feFlood flood-opacity="0" result="BackgroundImageFix"/>
<feColorMatrix in="SourceAlpha" type="matrix" values="0 0 0 0 0 0 0 0 0 0 0 0 0 0 0 0 0 0 127 0" result="hardAlpha"/>
<feOffset dy="4"/>
<feGaussianBlur stdDeviation="1"/>
<feComposite in2="hardAlpha" operator="out"/>
<feColorMatrix type="matrix" values="0 0 0 0 0 0 0 0 0 0 0 0 0 0 0 0 0 0 0.25 0"/>
<feBlend mode="normal" in2="BackgroundImageFix" result="effect1_dropShadow_58_12"/>
<feBlend mode="normal" in="SourceGraphic" in2="effect1_dropShadow_58_12" result="shape"/>
</filter>
<filter id="filter3_d_58_12" x="24.4722" y="161.384" width="487.613" height="43.904" filterUnits="userSpaceOnUse" color-interpolation-filters="sRGB">
<feFlood flood-opacity="0" result="BackgroundImageFix"/>
<feColorMatrix in="SourceAlpha" type="matrix" values="0 0 0 0 0 0 0 0 0 0 0 0 0 0 0 0 0 0 127 0" result="hardAlpha"/>
<feOffset dy="4"/>
<feGaussianBlur stdDeviation="2"/>
<feComposite in2="hardAlpha" operator="out"/>
<feColorMatrix type="matrix" values="0 0 0 0 0 0 0 0 0 0 0 0 0 0 0 0 0 0 0.25 0"/>
<feBlend mode="normal" in2="BackgroundImageFix" result="effect1_dropShadow_58_12"/>
<feBlend mode="normal" in="SourceGraphic" in2="effect1_dropShadow_58_12" result="shape"/>
</filter>
</defs>
</svg>
